<svg viewBox="0 0 926 130" fill="none" xmlns="http://www.w3.org/2000/svg">
<defs><style type="text/css"><![CDATA[
.colorA { fill: #005EB8; } .colorB { fill: #003B5C; } .colorC { fill: #002A3A; } .colorD { fill: #D9E1E2; }
@media (prefers-color-scheme: dark) { .colorA { fill: #00A3E0; } .colorB { fill: #B9D9EB; } .colorC { fill: #D9E1E2; } .colorD { fill: #4c636f; }
}
]]>
</style></defs>
<path d="M100.282 57.113a3.66 3.66 0 0 0-3.655 3.664c0 30.158-24.377 54.605-54.447 54.605a3.66 3.66 0 0 0-3.655 3.665 3.659 3.659 0 0 0 3.655 3.664c34.107 0 61.756-27.728 61.756-61.934a3.66 3.66 0 0 0-3.654-3.664Z" fill="#005EB8" class="colorA"/>
<path d="M78.226 80.599c3.514-5.75 6.913-13.415 6.244-24.147-1.385-22.23-21.462-39.095-40.42-37.267-7.422.715-15.042 6.782-14.365 17.65.294 4.722 2.599 7.51 6.344 9.652 3.565 2.04 8.146 3.332 13.338 4.796 6.272 1.77 13.547 3.757 19.14 7.89 6.7 4.952 11.282 10.694 9.72 21.426Z" fill="#003B5C" class="colorB"/>
<path d="M6.9 41.725C3.386 47.475-.013 55.14.656 65.872c1.385 22.23 21.462 39.095 40.42 37.267 7.422-.715 15.043-6.782 14.366-17.65-.295-4.722-2.6-7.51-6.345-9.652-3.565-2.04-8.145-3.332-13.338-4.797-6.272-1.769-13.547-3.756-19.139-7.889C9.918 58.2 5.337 52.457 6.9 41.725Z" fill="#005EB8" class="colorA"/>
<path fill-rule="evenodd" clip-rule="evenodd" d="M586.036 64.401v37.254h14.535V61.162c0-7.463-1.454-13.1-4.362-16.924-2.909-3.861-7.295-5.752-13-5.752-6.189 0-11.149 3.63-14.132 9.718h-.807c.22-3.144.419-4.944.564-6.26.15-1.356.243-2.195.243-3.458V15h-14.535v86.655h15.343V71.69c0-6.72.223-11.692 1.603-15.256 1.38-3.601 3.785-5.402 7.215-5.402 4.586 0 7.333 4.273 7.333 13.37ZM375.03 97.167c3.927-4.073 5.891-9.938 5.891-17.597 0-4.781-1.076-9.04-3.229-12.776-2.115-3.736-5.873-7.397-11.273-10.984-4.003-2.615-6.817-4.95-8.441-7.004-1.586-2.055-2.379-4.465-2.379-7.23 0-2.801.661-5.005 1.982-6.612 1.36-1.644 3.286-2.465 5.779-2.465 2.266 0 4.381.41 6.344 1.232a47.629 47.629 0 0 1 5.722 2.802l5.099-12.216c-5.854-3.512-11.954-5.268-18.298-5.268-6.647 0-11.953 2.055-15.919 6.165-3.928 4.109-5.891 9.675-5.891 16.699 0 3.661.49 6.874 1.472 9.638a26.358 26.358 0 0 0 4.249 7.51c1.851 2.204 4.551 4.52 8.101 6.948 4.079 2.765 7.006 5.287 8.781 7.565 1.775 2.242 2.662 4.726 2.662 7.454 0 2.764-.755 4.95-2.266 6.556-1.473 1.606-3.682 2.41-6.628 2.41-5.174 0-10.858-2-17.051-5.996v15.074c5.06 2.802 11.197 4.203 18.411 4.203 7.364 0 12.992-2.036 16.882-6.109Zm15.862-2.194c4.532 5.534 10.711 8.302 18.539 8.302 6.703 0 12.452-1.44 17.246-4.32V86.671c-5.093 3.029-10.074 4.543-14.943 4.543-3.82 0-6.816-1.346-8.988-4.038-2.172-2.73-3.139-6.674-3.252-12.246h29.879v-8.173c0-8.937-1.966-15.874-5.898-20.81-3.933-4.974-9.307-7.461-16.123-7.461-7.303 0-12.995 2.898-17.078 8.695-4.082 5.796-6.123 13.855-6.123 24.176 0 10.172 2.247 18.044 6.741 23.616Zm11.067-41.566c1.386-2.281 3.146-3.422 5.281-3.422 2.284 0 4.082 1.178 5.393 3.534s2.13 6.32 2.205 10.882h-15.344c.225-4.749 1.08-8.75 2.465-10.994Zm63.753 48.248-2.422-8.099h-.808c-2.226 3.659-4.368 6.266-6.745 7.647-2.377 1.381-5.377 2.072-8.999 2.072-4.641 0-8.301-1.718-10.98-5.152-2.641-3.435-3.962-8.213-3.962-14.335 0-6.57 1.811-11.442 5.433-14.616 3.66-3.21 9.113-4.983 16.357-5.32l8.377-.335v-4.48c0-5.824-2.547-8.736-7.641-8.736-3.773 0-8.112 1.456-13.018 4.368l-5.207-10.303c6.264-3.92 12.971-5.88 20.329-5.88 6.678 0 11.857 1.904 15.328 5.712 3.509 3.77 5.264 9.127 5.264 16.07v41.387h-11.306Zm-12.805-10.028c2.755 0 4.943-1.213 6.566-3.64 1.66-2.463 2.49-5.73 2.49-9.8v-5.263l-4.641.224c-3.434.187-5.962 1.157-7.584 2.912-1.585 1.755-2.378 4.368-2.378 7.84 0 5.151 1.849 7.727 5.547 7.727Zm61.258-51.926c-1.729-.559-4.301-1.215-6.103-1.215-2.537 0-4.762.838-6.674 2.514-1.912 1.676-3.371 3.293-4.989 7.204h-.808l-2.422-8.098h-11.306v61.549h15.284V69.261c0-5.439.344-8.947 2.256-11.778 1.912-2.868 4.651-4.302 8.218-4.302 1.655 0 3.092.32 4.121.692l2.423-14.172Zm22.611 63.574c-7.361 0-12.995-2.466-16.841-7.888-3.847-5.422-5.77-13.388-5.77-23.896 0-10.995 1.812-19.203 5.437-24.626 3.661-5.422 9.126-8.38 16.745-8.38 2.293 0 4.873.583 7.388 1.257 2.515.673 5.579 1.522 7.576 2.793l-5.024 11.735c-3.069-1.833-5.788-2.749-8.155-2.749-3.144 0-5.419 1.664-6.824 4.993-1.369 3.29-2.053 8.246-2.053 14.865 0 6.47.684 11.312 2.053 14.528 1.368 3.179 3.606 4.768 6.713 4.768 3.699 0 7.564-1.309 11.595-3.926v13.126c-3.883 2.43-8.143 3.4-12.84 3.4Z" fill="#003B5C" class="colorB"/>
<path fill-rule="evenodd" clip-rule="evenodd" d="M174.639 92.362c5.085-7.276 7.628-17.685 7.628-31.228 0-13.543-2.524-23.934-7.572-31.172-5.048-7.275-12.302-10.913-21.763-10.913-9.573 0-16.902 3.62-21.987 10.857-5.085 7.2-7.628 17.573-7.628 31.116 0 13.655 2.543 24.12 7.628 31.396 5.085 7.238 12.377 10.857 21.875 10.857 9.46 0 16.733-3.638 21.819-10.913Zm-32.196-9.906c-2.355-4.887-3.533-11.995-3.533-21.322 0-9.365 1.178-16.472 3.533-21.322 2.356-4.888 5.852-7.331 10.489-7.331 9.124 0 13.686 9.55 13.686 28.653 0 19.102-4.599 28.653-13.798 28.653-4.562 0-8.021-2.443-10.377-7.33Zm65.158 19.195c2.073 1.2 4.302 1.624 6.967 1.624 5.701 0 10.338-2.711 13.632-8.486 3.295-5.774 4.942-13.743 4.942-23.905 0-10.312-1.592-18.28-4.775-23.905-3.184-5.662-7.589-8.493-13.215-8.493-5.849 0-10.432 3.494-13.504 9.718h-.808l-2.422-8.098h-11.306V130h14.536v-26.725c0-1.05-.215-4.619-.808-9.719h.808c1.211 3.645 3.917 6.858 5.953 8.095Zm-3.72-46.347c1.295-2.738 3.387-4.106 6.274-4.106 2.702 0 4.682 1.612 5.941 4.837 1.295 3.225 1.943 8.1 1.943 14.624 0 13.275-2.591 19.912-7.773 19.912-2.998 0-5.145-1.575-6.441-4.725-1.296-3.15-1.943-8.175-1.943-15.074v-1.969c.074-6.3.74-10.8 1.999-13.5Zm57.77 47.971c-7.827 0-14.006-2.768-18.538-8.302-4.494-5.572-6.741-13.444-6.741-23.616 0-10.321 2.041-18.38 6.123-24.176 4.082-5.797 9.775-8.695 17.078-8.695 6.816 0 12.19 2.487 16.123 7.46 3.932 4.937 5.898 11.874 5.898 20.811v8.173h-29.879c.113 5.572 1.079 9.516 3.251 12.246 2.173 2.692 5.169 4.038 8.989 4.038 4.868 0 9.849-1.514 14.943-4.543v12.284c-4.794 2.88-10.543 4.32-17.247 4.32Zm-2.19-53.29c-2.135 0-3.895 1.14-5.281 3.422-1.386 2.244-2.24 6.245-2.465 10.994h15.343c-.075-4.562-.894-8.526-2.205-10.882-1.31-2.356-3.108-3.534-5.392-3.534Zm58.472 14.416v37.254h14.536v-40.17c0-7.516-1.417-13.228-4.251-17.137-2.796-3.908-7.028-5.862-12.696-5.862-3.355 0-6.282.827-8.78 2.48-2.499 1.616-4.425 4.345-5.767 7.238h-.808l-2.018-8.098h-11.71v61.549h15.343v-29.56c0-7.629.28-12.828 1.772-16.022 1.491-3.232 3.84-4.848 7.047-4.848 2.423 0 4.176 1.165 5.257 3.495 1.081 2.33 2.075 5.134 2.075 9.681Z" fill="#005EB8" class="colorA"/>
<path fill="#D9E1E2" class="colorD" d="M629.025 0h4v130h-4z"/>
<path d="M712.792 60.531c0 13.316-2.722 23.505-8.166 30.568-5.407 7.025-13.205 10.538-23.394 10.538h-19.753V20.97h21.574c9.38 0 16.681 3.476 21.904 10.429 5.224 6.915 7.835 16.626 7.835 29.132Zm-15.394.442c0-18.024-4.965-27.036-14.897-27.036h-6.014v54.569h4.855c5.481 0 9.527-2.281 12.139-6.842 2.612-4.598 3.917-11.495 3.917-20.691ZM743.004 102.741c-7.687 0-13.757-2.722-18.208-8.166-4.414-5.481-6.621-13.224-6.621-23.23 0-10.151 2.005-18.078 6.015-23.78 4.009-5.701 9.6-8.552 16.773-8.552 6.695 0 11.973 2.446 15.835 7.338 3.863 4.856 5.794 11.68 5.794 20.47v7.835h-29.519c.11 5.481 1.232 9.564 3.366 12.25 2.133 2.648 5.076 3.972 8.828 3.972 4.782 0 9.674-1.49 14.676-4.47v12.084c-4.708 2.833-10.354 4.249-16.939 4.249Zm-2.151-52.417c-2.097 0-3.826 1.122-5.187 3.366-1.361 2.207-2.152 5.646-2.372 10.317h14.897c-.074-4.487-.754-7.89-2.042-10.207-1.287-2.317-3.053-3.476-5.296-3.476ZM801.908 83.65c0 5.996-1.766 10.686-5.297 14.07-3.494 3.347-8.663 5.021-15.504 5.021-6.07 0-11.091-1.196-15.063-3.587V86.41c2.023 1.398 4.377 2.556 7.062 3.476 2.722.92 5.113 1.38 7.173 1.38 2.281 0 4.009-.552 5.187-1.656 1.213-1.14 1.82-2.63 1.82-4.47 0-1.875-.625-3.512-1.876-4.91-1.25-1.398-3.549-3.108-6.897-5.131-4.45-2.649-7.651-5.463-9.6-8.442-1.913-3.016-2.869-6.566-2.869-10.649 0-5.223 1.784-9.361 5.352-12.415 3.605-3.053 8.534-4.58 14.787-4.58 5.444 0 10.575 1.435 15.394 4.304l-4.8 10.54c-3.936-2.134-7.394-3.201-10.373-3.201-1.876 0-3.293.496-4.249 1.49-.92.993-1.379 2.207-1.379 3.641 0 1.655.57 3.127 1.71 4.414 1.177 1.288 3.347 2.888 6.511 4.8 3.825 2.318 6.511 4.286 8.055 5.904a17.62 17.62 0 0 1 3.587 5.518c.846 2.06 1.269 4.47 1.269 7.228ZM822.575 101.637h-14.677V40.172h14.677v61.465Zm-15.284-77.522c0-2.427.699-4.34 2.097-5.738 1.434-1.434 3.42-2.152 5.959-2.152 2.39 0 4.303.717 5.738 2.152 1.434 1.398 2.152 3.31 2.152 5.738 0 2.502-.736 4.451-2.207 5.849-1.472 1.361-3.366 2.041-5.683 2.041-2.428 0-4.378-.68-5.849-2.041-1.471-1.398-2.207-3.347-2.207-5.849ZM876.016 40.282v8.607l-7.339 1.656c1.435 2.574 2.152 5.811 2.152 9.71 0 6.511-1.766 11.606-5.297 15.284-3.531 3.679-8.46 5.518-14.787 5.518-1.839 0-3.2-.147-4.083-.442a17.974 17.974 0 0 0-1.986 2.097c-.626.772-.938 1.729-.938 2.87 0 2.574 2.225 3.862 6.676 3.862h8.883c5.224 0 9.233 1.416 12.029 4.248 2.832 2.796 4.248 7.026 4.248 12.69 0 7.137-2.391 12.654-7.173 16.553-4.782 3.899-11.66 5.849-20.635 5.849-6.805 0-12.047-1.49-15.725-4.469-3.679-2.943-5.518-7.155-5.518-12.636 0-3.421 1.048-6.437 3.145-9.049 2.097-2.574 5.003-4.45 8.718-5.627-1.876-.736-3.421-1.876-4.635-3.421-1.177-1.545-1.766-3.348-1.766-5.408 0-1.25.184-2.372.552-3.365.368-1.03.883-1.987 1.545-2.87.699-.919 2.097-2.262 4.193-4.027-2.538-1.545-4.542-3.918-6.014-7.118-1.471-3.2-2.207-6.75-2.207-10.649 0-6.731 1.766-11.936 5.297-15.615 3.531-3.678 8.589-5.517 15.173-5.517 1.251 0 2.686.147 4.304.441 1.619.258 2.851.534 3.697.828h17.491Zm-36.141 70.294c0 2.428.755 4.285 2.263 5.573 1.545 1.324 3.733 1.986 6.566 1.986 4.45 0 7.779-.846 9.986-2.538 2.244-1.692 3.366-4.01 3.366-6.952 0-2.318-.607-3.955-1.821-4.911-1.177-.956-3.402-1.435-6.676-1.435h-7.118c-1.986 0-3.586.736-4.8 2.207-1.177 1.509-1.766 3.532-1.766 6.07Zm4.525-50.32c0 7.246 2.041 10.87 6.124 10.87 3.973 0 5.959-3.66 5.959-10.98 0-7.505-1.986-11.257-5.959-11.257-4.083 0-6.124 3.789-6.124 11.366ZM910.642 101.637V65.001c0-4.451-.534-7.817-1.6-10.098-1.067-2.28-2.796-3.42-5.187-3.42-3.163 0-5.481 1.581-6.952 4.745-1.471 3.126-2.207 8.423-2.207 15.89v29.519h-14.677V40.172h11.642l1.766 7.89h.938c1.324-2.833 3.218-5.04 5.683-6.621 2.465-1.619 5.352-2.428 8.663-2.428 5.591 0 9.766 1.913 12.524 5.738 2.796 3.826 4.194 9.417 4.194 16.774v40.112h-14.787Z" fill="#002A3A" class="colorC"/>
</svg>